# File created by Blade
# Date/Time:  Wed Jan 21 19:14:05 2015
#---------------------------------------------------------
:version 1.10
:name HOM
:units
  mass 1.0
  length 1.000000
  angle deg
:documentation
     Acclaim Skeleton File
:root
   axis xyz
   order TX TY TZ RX RY RZ
   position 0.000000 0.000000 0.000000
   orientation 0 0 0
:bonedata
   begin
      id 1
      name RightUpLeg_dum
      direction -1.000000 0.000000 0.000000
      length 3.693983
      axis 0.0 0.0 0.0 xyz
   end
   begin
      id 2
      name LeftUpLeg_dum
      direction 1.000000 0.000000 0.000000
      length 3.693983
      axis 0.0 0.0 0.0 xyz
   end
   begin
      id 3
      name Spine_dum
      direction 0.000000 1.000000 0.000000
      length 2.392956
      axis 0.0 0.0 0.0 xyz
   end
   begin
      id 4
      name RightUpLeg
      direction 0.000000 -1.000000 0.000000
      length 15.795667
      axis 0.0 0.0 0.0 xyz
      dof rx ry rz
   end
   begin
      id 5
      name RightLeg
      direction 0.000000 -1.000000 0.000000
      length 14.766989
      axis 0.0 0.0 0.0 xyz
      dof rx ry rz
   end
   begin
      id 6
      name RightFoot
      direction 0.000000 -0.258819 0.965926
      length 4.962790
      axis 15.0 0.0 0.0 xyz
      dof rx ry rz
   end
   begin
      id 7
      name RightToeBase
      direction 0.000000 0.000000 1.000000
      length 2.952750
      axis 0.0 0.0 0.0 xyz
      dof rx ry rz
   end
   begin
      id 8
      name LeftUpLeg
      direction 0.000000 -1.000000 0.000000
      length 15.795667
      axis 0.0 0.0 0.0 xyz
      dof rx ry rz
   end
   begin
      id 9
      name LeftLeg
      direction 0.000000 -1.000000 0.000000
      length 14.766989
      axis 0.0 0.0 0.0 xyz
      dof rx ry rz
   end
   begin
      id 10
      name LeftFoot
      direction 0.000000 -0.258819 0.965926
      length 4.962790
      axis 15.0 0.0 0.0 xyz
      dof rx ry rz
   end
   begin
      id 11
      name LeftToeBase
      direction 0.000000 0.000000 1.000000
      length 2.952750
      axis 0.0 0.0 0.0 xyz
      dof rx ry rz
   end
   begin
      id 12
      name Spine
      direction 0.000000 1.000000 0.000000
      length 0.000000
      axis 0.0 0.0 0.0 xyz
      dof rx ry rz
   end
   begin
      id 13
      name Spine_dum1
      direction 0.000000 1.000000 0.000000
      length 13.207411
      axis 0.0 0.0 0.0 xyz
   end
   begin
      id 14
      name Spine_dum2
      direction 0.000000 1.000000 0.000000
      length 13.207411
      axis 0.0 0.0 0.0 xyz
   end
   begin
      id 15
      name Spine_dum3
      direction 0.000000 1.000000 0.000000
      length 19.250100
      axis 0.0 0.0 0.0 xyz
   end
   begin
      id 16
      name RightShoulder
      direction -1.000000 0.000000 0.000000
      length 8.140465
      axis 0.0 0.0 90.0 xyz
      dof rx ry rz
   end
   begin
      id 17
      name RightArm
      direction -1.000000 0.000000 0.000000
      length 10.649840
      axis 0.0 0.0 90.0 xyz
      dof rx ry rz
   end
   begin
      id 18
      name RightForeArm
      direction -1.000000 0.000000 0.000000
      length 8.304624
      axis 0.0 0.0 90.0 xyz
      dof ry rz rx
   end
   begin
      id 19
      name RightHand
      direction -1.000000 0.000000 0.000000
      length 0.000000
      axis 0.0 0.0 90.0 xyz
      dof rx ry rz
   end
   begin
      id 20
      name RightHand_dum1
      direction -1.000000 0.000000 0.000000
      length 3.937000
      axis 0.0 0.0 90.0 xyz
   end
   begin
      id 21
      name RightHand_dum2
      direction 0.000000 0.000000 0.000000
      length 0.000000
      axis 0.0 0.0 90.0 xyz
   end
   begin
      id 22
      name RightHandThumb1
      direction 0.000000 0.000000 1.000000
      length 3.937000
      axis 0.0 0.0 90.0 xyz
      dof rx rz ry
   end
   begin
      id 23
      name LeftShoulder
      direction 1.000000 0.000000 0.000000
      length 8.140465
      axis 0.0 0.0 -90.0 xyz
      dof rx ry rz
   end
   begin
      id 24
      name LeftArm
      direction 1.000000 0.000000 0.000000
      length 10.649840
      axis 0.0 0.0 -90.0 xyz
      dof rx ry rz
   end
   begin
      id 25
      name LeftForeArm
      direction 1.000000 0.000000 0.000000
      length 8.304624
      axis 0.0 0.0 -90.0 xyz
      dof ry rz rx
   end
   begin
      id 26
      name LeftHand
      direction 1.000000 0.000000 0.000000
      length 0.000000
      axis 0.0 0.0 -90.0 xyz
      dof rx ry rz
   end
   begin
      id 27
      name LeftHand_dum1
      direction 1.000000 0.000000 0.000000
      length 3.937000
      axis 0.0 0.0 -90.0 xyz
   end
   begin
      id 28
      name LeftHand_dum2
      direction 0.000000 0.000000 0.000000
      length 0.000000
      axis 0.0 0.0 -90.0 xyz
   end
   begin
      id 29
      name LeftHandThumb1
      direction 0.000000 0.000000 1.000000
      length 3.937000
      axis 0.0 0.0 -90.0 xyz
      dof rx rz ry
   end
   begin
      id 30
      name Head
      direction 0.000000 1.000000 0.000000
      length 4.527550
      axis 0.0 0.0 0.0 xyz
      dof rx ry rz
   end
:hierarchy
   begin
      root RightUpLeg_dum LeftUpLeg_dum Spine_dum
      RightUpLeg_dum RightUpLeg
      LeftUpLeg_dum LeftUpLeg
      Spine_dum Spine
      RightUpLeg RightLeg
      RightLeg RightFoot
      RightFoot RightToeBase
      LeftUpLeg LeftLeg
      LeftLeg LeftFoot
      LeftFoot LeftToeBase
      Spine Spine_dum1 Spine_dum2 Spine_dum3
      Spine_dum1 RightShoulder
      Spine_dum2 LeftShoulder
      Spine_dum3 Head
      RightShoulder RightArm
      RightArm RightForeArm
      RightForeArm RightHand
      RightHand RightHand_dum1 RightHand_dum2
      RightHand_dum2 RightHandThumb1
      LeftShoulder LeftArm
      LeftArm LeftForeArm
      LeftForeArm LeftHand
      LeftHand LeftHand_dum1 LeftHand_dum2
      LeftHand_dum2 LeftHandThumb1
   end

# File created by Blade
# Date/Time:  Wed Jan 21 19:13:57 2015
# Frame Rate: 120.000 fps
#------------------------------------------------------
:FULLY-SPECIFIED
:DEGREES
507
root -7.376179 34.320519 -0.841709 41.289833 51.932821 -90.816177
RightUpLeg 10.230953 -6.368150 -23.886282
RightLeg 62.269057 -0.000000 -0.000000
RightFoot 27.244114 -23.452646 23.022649
RightToeBase 41.448077 -0.000000 -0.000000
LeftUpLeg -138.536880 29.196643 -27.387324
LeftLeg -6.641154 -0.000000 0.000000
LeftFoot -3.700948 0.544732 -1.414660
LeftToeBase 8.212309 -0.000000 -0.000000
Spine -74.628666 -4.050977 22.786331
RightShoulder -33.958632 2.710786 -34.321513
RightArm -19.107352 -33.789359 49.488623
RightForeArm -19.180180 0.000000 3.649691
RightHand 8.315510 -0.000000 24.087714
RightHandThumb1 -24.326973 -0.000000 -32.862282
LeftShoulder -19.737019 -5.601432 52.785846
LeftArm 40.671564 -9.927627 -27.988047
LeftForeArm 22.912509 -0.000000 -5.479080
LeftHand -19.233078 0.000000 -2.420443
LeftHandThumb1 -26.253704 0.000000 33.147579
Head -30.555315 33.109018 41.420257
508
root -7.330243 34.322718 -0.815820 40.921825 51.698727 -91.109495
RightUpLeg 10.049829 -6.129711 -23.650044
RightLeg 62.581146 -0.000000 -0.000000
RightFoot 27.254651 -23.637810 23.265072
RightToeBase 41.533911 -0.000000 -0.000000
LeftUpLeg -138.449384 29.573643 -27.314177
LeftLeg -6.642846 -0.000000 0.000000
LeftFoot -3.664089 1.033760 -0.268485
LeftToeBase 7.379489 -0.000000 -0.000000
Spine -74.456812 -3.997528 22.797071
RightShoulder -33.942873 2.622816 -34.206331
RightArm -19.154805 -33.723062 49.680946
RightForeArm -18.991376 -0.000000 3.470224
RightHand 8.271928 -0.000000 23.893770
RightHandThumb1 -24.326973 -0.000000 -32.862282
LeftShoulder -19.601592 -5.480105 52.652452
LeftArm 40.841287 -10.018693 -28.106917
LeftForeArm 23.021770 -0.000000 -5.373514
LeftHand -19.215963 0.000000 -2.301329
LeftHandThumb1 -26.253704 0.000000 33.147579
Head -30.569255 32.880814 41.677581
509
root -7.282960 34.331348 -0.791656 40.659262 51.518367 -91.349117
RightUpLeg 9.828273 -6.094137 -23.480620
RightLeg 62.920528 -0.000000 -0.000000
RightFoot 27.236204 -23.741938 23.375580
RightToeBase 41.438404 -0.000000 -0.000000
LeftUpLeg -138.293958 29.960775 -27.256809
LeftLeg -6.827921 -0.000000 0.000000
LeftFoot -3.527490 1.263430 -0.011340
LeftToeBase 6.997499 -0.000000 -0.000000
Spine -74.350941 -4.009380 22.813811
RightShoulder -33.949631 2.515350 -34.019150
RightArm -19.110976 -33.597857 49.814466
RightForeArm -19.040532 -0.000000 3.283758
RightHand 8.251208 -0.000000 23.668417
RightHandThumb1 -24.326973 -0.000000 -32.862282
LeftShoulder -19.480858 -5.420684 52.625252
LeftArm 40.963533 -9.973189 -28.097211
LeftForeArm 22.871071 0.000000 -5.233690
LeftHand -19.299864 -0.000000 -2.287327
LeftHandThumb1 -26.253704 0.000000 33.147579
Head -30.588076 32.675577 41.960025
510
root -7.235058 34.344319 -0.775549 40.542342 51.408737 -91.525742
RightUpLeg 9.549648 -6.303747 -23.397585
RightLeg 63.240436 -0.000000 -0.000000
RightFoot 27.197752 -23.784764 23.284881
RightToeBase 41.418207 -0.000000 -0.000000
LeftUpLeg -138.034265 30.409970 -27.093498
LeftLeg -7.222546 -0.000000 0.000000
LeftFoot -3.150617 1.461006 0.087073
LeftToeBase 6.495006 -0.000000 -0.000000
Spine -74.334949 -4.051990 22.825942
RightShoulder -33.989172 2.432715 -33.775729
RightArm -19.054374 -33.460428 49.918634
RightForeArm -18.940789 -0.000000 2.975242
RightHand 8.471464 0.000000 23.217175
RightHandThumb1 -24.326973 -0.000000 -32.862282
LeftShoulder -19.372411 -5.370383 52.635234
LeftArm 41.096152 -9.936354 -28.032291
LeftForeArm 22.658831 -0.000000 -5.087352
LeftHand -19.308815 0.000000 -2.128613
LeftHandThumb1 -26.253704 0.000000 33.147579
Head -30.657153 32.505314 42.198487
511
root -7.187084 34.351605 -0.765744 40.525748 51.329559 -91.548130
RightUpLeg 9.358956 -6.689708 -23.494899
RightLeg 63.484593 -0.000000 -0.000000
RightFoot 26.999428 -24.001159 23.574419
RightToeBase 41.338815 -0.000000 -0.000000
LeftUpLeg -137.561878 30.956335 -26.814219
LeftLeg -7.742695 -0.000000 0.000000
LeftFoot -2.816998 1.720092 -0.064343
LeftToeBase 6.184929 -0.000000 -0.000000
Spine -74.312414 -4.163459 22.759052
RightShoulder -34.110412 2.382802 -33.531372
RightArm -18.970396 -33.287822 49.904328
RightForeArm -18.929485 0.000000 2.782501
RightHand 8.604833 -0.000000 22.709910
RightHandThumb1 -24.326973 -0.000000 -32.862282
LeftShoulder -19.269134 -5.333704 52.668720
LeftArm 41.307566 -10.223013 -28.162704
LeftForeArm 22.733402 -0.000000 -4.962195
LeftHand -19.416159 -0.000000 -1.750819
LeftHandThumb1 -26.253704 0.000000 33.147579
Head -30.800605 32.378826 42.346617
512
root -7.145658 34.349143 -0.765530 40.649708 51.341334 -91.380007
RightUpLeg 9.324242 -7.365853 -23.820304
RightLeg 63.632029 -0.000000 -0.000000
RightFoot 26.768505 -24.036252 23.672735
RightToeBase 41.289415 -0.000000 -0.000000
LeftUpLeg -136.904359 31.442254 -26.418477
LeftLeg -8.337058 -0.000000 0.000000
LeftFoot -2.494921 2.084093 -0.319126
LeftToeBase 5.995133 -0.000000 -0.000000
Spine -74.327737 -4.369588 22.669906
RightShoulder -34.169269 2.383956 -33.349293
RightArm -19.076147 -33.039115 49.885162
RightForeArm -18.827813 -0.000000 2.824432
RightHand 8.664699 -0.000000 22.395096
RightHandThumb1 -24.326973 -0.000000 -32.862282
LeftShoulder -19.161417 -5.300682 52.680680
LeftArm 41.496855 -10.424288 -28.088528
LeftForeArm 22.693454 0.000000 -4.861463
LeftHand -19.346631 -0.000000 -1.511667
LeftHandThumb1 -26.253704 0.000000 33.147579
Head -30.921974 32.206700 42.402080
513
root -7.105962 34.342178 -0.767096 40.728367 51.413477 -91.282454
RightUpLeg 9.338152 -8.092916 -24.130866
RightLeg 63.665530 -0.000000 -0.000000
RightFoot 26.522313 -24.076671 23.801304
RightToeBase 41.159108 -0.000000 -0.000000
LeftUpLeg -136.286808 31.864307 -25.992066
LeftLeg -8.915859 -0.000000 0.000000
LeftFoot -2.160467 2.327762 -0.436492
LeftToeBase 5.722112 -0.000000 -0.000000
Spine -74.348437 -4.548935 22.660280
RightShoulder -34.314013 2.354901 -33.221500
RightArm -19.038251 -32.784419 49.776367
RightForeArm -18.812960 -0.000000 2.906001
RightHand 8.808272 0.000000 21.898497
RightHandThumb1 -24.326973 -0.000000 -32.862282
LeftShoulder -19.094344 -5.327637 52.685744
LeftArm 41.724483 -10.669540 -28.032516
LeftForeArm 22.782816 0.000000 -4.762171
LeftHand -19.442174 -0.000000 -1.150541
LeftHandThumb1 -26.253704 0.000000 33.147579
Head -31.093598 32.073970 42.304487
514
root -7.069968 34.333271 -0.774671 40.770237 51.519695 -91.291597
RightUpLeg 9.308512 -8.788471 -24.400990
RightLeg 63.681364 -0.000000 -0.000000
RightFoot 26.314258 -23.994737 23.845314
RightToeBase 40.979481 -0.000000 -0.000000
LeftUpLeg -135.823076 32.178709 -25.597446
LeftLeg -9.400457 -0.000000 0.000000
LeftFoot -1.830954 2.483213 -0.729802
LeftToeBase 5.300993 -0.000000 -0.000000
Spine -74.394783 -4.672479 22.786864
RightShoulder -34.408766 2.393579 -33.174564
RightArm -19.103528 -32.414714 49.607796
RightForeArm -18.904389 0.000000 3.295129
RightHand 8.905961 0.000000 21.665147
RightHandThumb1 -24.326973 -0.000000 -32.862282
LeftShoulder -19.082793 -5.365773 52.705699
LeftArm 41.923784 -10.738819 -27.771644
LeftForeArm 22.619424 -0.000000 -4.668078
LeftHand -19.525967 -0.000000 -0.735210
LeftHandThumb1 -26.253704 0.000000 33.147579
Head -31.228013 31.967698 42.135001
